<svg xmlns="http://www.w3.org/2000/svg" viewBox="0 342.2 1000 315.7" enable-background="new 0 342.2 1000 315.7"><path d="M302.6 588.2c-5.8 0-10.4-2.7-13.4-5.7v5h-5.1v-53.6h5.1v19c3-3 7.7-5.6 13.4-5.6 11.6 0 19.2 8.5 19.2 20.4.1 11.8-7.6 20.5-19.2 20.5zm-1.2-36.3c-5.2 0-9.7 2.8-12.2 5.6v20.9c2.4 2.7 7 5.3 12.2 5.3 9.2 0 15.3-6.5 15.3-15.9 0-9.5-6-15.9-15.3-15.9zm66.8-3.9l-18 42.2c-3.2 7.7-6.6 12.2-14.3 12.2-3.9 0-7.1-1.5-9-2.7l.9-4.3c2 1.3 4.5 2.6 8.1 2.6 5 0 7.1-2.8 9.2-7.8l1.3-3.1-19-39.1h5.7l15.8 33.8 14.1-33.8h5.2zm43.3-.7c5.7 0 10.4 2.6 13.4 5.6v-19h5.1v53.6h-5.1v-5c-3 3.1-7.6 5.7-13.4 5.7-11.6 0-19.3-8.6-19.3-20.5s7.7-20.4 19.3-20.4zm1.2 36.2c5.2 0 9.8-2.7 12.2-5.3v-20.7c-2.5-2.8-7-5.6-12.2-5.6-9.2 0-15.3 6.5-15.3 15.8.1 9.3 6.2 15.8 15.3 15.8zm50.3-36.6c5.9 0 11 2 14.7 5.3l-2.7 3.8c-2.8-2.7-6.8-4.5-11.8-4.5-9.5 0-15.9 6.8-15.9 16s6.4 16.1 15.9 16.1c5.1 0 9-1.8 11.8-4.5l2.7 3.8c-3.7 3.3-8.8 5.3-14.7 5.3-12.3 0-21-9-21-20.9.2-11.5 8.7-20.4 21-20.4zm29.2 33c2.7 0 4.1 1.5 4.1 4.3s-1.5 4.3-4.1 4.3c-2.7 0-4.1-1.4-4.1-4.3.1-2.9 1.5-4.3 4.1-4.3zm18.1-29.9c3.7-1.7 9-2.7 13.7-2.7 10.3 0 15.2 5.8 15.2 14.5v25.7h-5.1v-4.7c-2.8 2.7-7.1 5.6-13.6 5.6-8.6 0-14-4.6-14-12 0-9.6 8.2-14 19.2-14 3.1 0 5.9.4 8.3.9v-1.2c0-6.8-3.4-10.2-10.3-10.2-4.5 0-8.8.9-12.3 2.7l-1.1-4.6zm11.4 33.9c5.9 0 9.8-2.8 12.2-5.1v-11.8c-1.7-.5-4.6-.9-7.3-.9-8.5 0-15 2.8-15 9.6 0 5.2 3.9 8.2 10.1 8.2zm31.9-35.9h5.1v8.4c2.4-5.3 6.3-9 12.1-9 3.7 0 6 1.2 8.4 3l-2.1 4.3c-1.8-1.4-4.3-2.5-6.9-2.5-5.7 0-9.5 4.5-11.4 10.1v25.2h-5.1l-.1-39.5zm51.4-1.1c12.3 0 21.1 8.9 21.1 21 0 11.8-8.6 20.6-21.1 20.6-12.2 0-21-8.8-21-20.6.1-12.1 8.9-21 21-21zm0 36.7c9.6 0 16.1-6.9 16.1-15.9 0-9.2-6.5-16.1-16.1-16.1-9.4 0-15.9 7-15.9 16.1 0 9.2 6.6 15.9 15.9 15.9zm51.5-36.7c5.9 0 11 2 14.7 5.3l-2.7 3.8c-2.8-2.7-6.8-4.5-11.8-4.5-9.5 0-15.9 6.8-15.9 16s6.4 16.1 15.9 16.1c5.1 0 9-1.8 11.8-4.5l2.7 3.8c-3.7 3.3-8.8 5.3-14.7 5.3-12.3 0-21-9-21-20.9 0-11.5 8.6-20.4 21-20.4zm58.1 1.9l-21.2 17.7 22.5 20.1v.8h-6.4l-21.6-19.7v19.7h-5.1v-53.6h5.1v31.4l20.6-17.4h5.9l.2 1z" opacity=".25" enable-background="new"/><path fill="#fff" d="M302.6 586.1c-5.8 0-10.4-2.7-13.4-5.7v5h-5.1v-53.7h5.1v19c3-3 7.7-5.6 13.4-5.6 11.6 0 19.2 8.5 19.2 20.4.1 12-7.6 20.6-19.2 20.6zm-1.2-36.3c-5.2 0-9.7 2.8-12.2 5.6v20.9c2.4 2.7 7 5.3 12.2 5.3 9.2 0 15.3-6.5 15.3-15.9s-6-15.9-15.3-15.9zm66.8-3.9l-18 42.2c-3.2 7.7-6.6 12.2-14.3 12.2-3.9 0-7.1-1.5-9-2.7l.9-4.3c2 1.3 4.5 2.6 8.1 2.6 5 0 7.1-2.8 9.2-7.8l1.3-3.1-19-39.1h5.7l15.8 33.8 14.1-33.8h5.2zm43.3-.6c5.7 0 10.4 2.6 13.4 5.6v-19h5.1v53.6h-5.1v-5c-3 3.1-7.6 5.7-13.4 5.7-11.6 0-19.3-8.6-19.3-20.5 0-12 7.7-20.4 19.3-20.4zm1.2 36.2c5.2 0 9.8-2.7 12.2-5.3v-20.7c-2.5-2.8-7-5.6-12.2-5.6-9.2 0-15.3 6.5-15.3 15.8.1 9.3 6.2 15.8 15.3 15.8zm50.3-36.6c5.9 0 11 2 14.7 5.3l-2.7 3.8c-2.8-2.7-6.8-4.5-11.8-4.5-9.5 0-15.9 6.8-15.9 16s6.4 16.1 15.9 16.1c5.1 0 9-1.8 11.8-4.5l2.7 3.8c-3.7 3.3-8.8 5.3-14.7 5.3-12.3 0-21-9-21-20.9.2-11.5 8.7-20.4 21-20.4zm29.2 32.8c2.7 0 4.1 1.5 4.1 4.3s-1.5 4.3-4.1 4.3c-2.7 0-4.1-1.4-4.1-4.3.1-2.7 1.5-4.3 4.1-4.3zm18.1-29.7c3.7-1.7 9-2.7 13.7-2.7 10.3 0 15.2 5.8 15.2 14.5v25.6h-5.1v-4.7c-2.8 2.7-7.1 5.6-13.6 5.6-8.6 0-14-4.6-14-12 0-9.6 8.2-14 19.2-14 3.1 0 5.9.4 8.3.9v-1.2c0-6.8-3.4-10.2-10.3-10.2-4.5 0-8.8.9-12.3 2.7l-1.1-4.5zm11.4 33.9c5.9 0 9.8-2.8 12.2-5.1v-11.8c-1.7-.5-4.6-.9-7.3-.9-8.5 0-15 2.8-15 9.6 0 5.2 3.9 8.2 10.1 8.2zm31.9-36h5.1v8.4c2.4-5.3 6.3-9 12.1-9 3.7 0 6 1.2 8.4 3l-2.1 4.3c-1.8-1.4-4.3-2.5-6.9-2.5-5.7 0-9.5 4.5-11.4 10.1v25.2h-5.1l-.1-39.5zm51.4-1c12.3 0 21.1 8.9 21.1 21 0 11.8-8.6 20.6-21.1 20.6-12.2 0-21-8.8-21-20.6.1-12.1 8.9-21 21-21zm0 36.7c9.6 0 16.1-6.9 16.1-15.9 0-9.2-6.5-16.1-16.1-16.1-9.4 0-15.9 7-15.9 16.1 0 9.1 6.6 15.9 15.9 15.9zm51.5-36.7c5.9 0 11 2 14.7 5.3l-2.7 3.8c-2.8-2.7-6.8-4.5-11.8-4.5-9.5 0-15.9 6.8-15.9 16s6.4 16.1 15.9 16.1c5.1 0 9-1.8 11.8-4.5l2.7 3.8c-3.7 3.3-8.8 5.3-14.7 5.3-12.3 0-21-9-21-20.9 0-11.5 8.6-20.4 21-20.4zm58.1 1.8l-21.2 17.7 22.5 20.1v.8h-6.4l-21.6-19.7v19.7h-5.1v-53.6h5.1v31.4l20.6-17.4h5.9l.2 1z" enable-background="new"/><path d="M79.7 426.1v13c4.9-8.4 13.2-14.2 25.2-14.2 13.7 0 21 6.3 24.4 16.1 4.5-8.8 13.5-16.1 26.8-16.1 18.6 0 26.3 13 26.3 30.2v39.3h-8.9v-38.2c0-13.2-5.8-23-20-23-12.6 0-19.9 8.3-22.4 17.5v43.7h-8.9v-38.2c0-13.5-5.8-23-19.9-23-12.7 0-20.1 8.1-22.7 17.5v43.7h-8.9v-68.4h9v.1zm128.5 3.5c6.3-2.8 15.6-4.7 23.8-4.7 17.8 0 26.2 10.1 26.2 25.1v44.4h-8.9v-8.3c-4.9 4.7-12.3 9.6-23.6 9.6-14.9 0-24.2-8.1-24.2-20.7 0-16.7 14.2-24.2 33.3-24.2 5.3 0 10.3.7 14.3 1.7v-2.1c0-11.7-6-17.7-17.9-17.7-7.7 0-15.3 1.7-21.4 4.7l-1.6-7.8zm19.8 58.9c10.2 0 16.9-4.9 21.2-8.8v-20.5c-3-.8-7.9-1.5-12.8-1.5-14.7 0-26.1 4.9-26.1 16.6 0 9.2 7 14.2 17.7 14.2zm84-63.6c10 0 18 4.5 23.2 9.7v-32.9h8.9v92.9h-8.9v-8.6c-5.1 5.3-13.2 10-23.2 10-20.1 0-33.5-14.9-33.5-35.5-.1-20.7 13.3-35.6 33.5-35.6zm2 62.9c9.1 0 16.9-4.6 21.2-9.2v-36c-4.3-4.9-12.2-9.7-21.2-9.7-16 0-26.4 11.3-26.4 27.4.1 16.1 10.5 27.5 26.4 27.5zm115.9-.7c-7.1 5.6-16.5 9.2-28 9.2-25.7 0-36.7-16.2-36.7-35.8 0-19.9 13.7-36.3 35.7-36.3 20.7 0 30.1 12.9 30.1 28.6 0 3.8-.5 8.3-1.2 10.8h-55.6c.9 14.2 9.4 25.2 28 25.2 10.1 0 18.1-3.9 23.9-8.4l3.8 6.7zm-7.5-35.6c0-10.3-6.5-19.7-21.7-19.7-16.1 0-25.5 11.3-26.3 24.4h47.6c.2-1.2.4-2.9.4-4.7zm170.6-25.4l-26.9 68.4h-11l-22.5-59.7-22.7 59.7h-11l-26.4-68.4h9.6l22.6 60.2 22.9-60.2h10.4l22.3 60.2 23.1-60.2h9.6zm22.4-24.9c3.4 0 5.8 1.4 5.8 5.6 0 4-2.4 5.6-5.8 5.6-3.7 0-6-1.5-6-5.6 0-4.3 2.3-5.6 6-5.6zm-4.5 24.9h8.9v68.4h-8.9v-68.4zm49.5-17.2v17.4h28.4v7.3h-28.6v40c0 9.6 4.5 14.3 12.8 14.3 5.3 0 12.2-2.4 16.2-5.3l3.1 7.1c-5.6 3.7-13.2 6.3-21.8 6.3-12.1 0-19.2-7.3-19.2-20.7v-41.6h-13.6v-7.5h13.7l.9-17.4h8.1v.1zm57-7.1v37.1c5-8.6 14.1-13.9 26.1-13.9 18.6 0 27.4 13 27.4 30.2v39.3h-9v-38.2c0-13.2-6.5-23-21-23-12.6 0-21 7.8-23.6 17.3v44h-8.8v-92.9l8.9.1z" opacity=".25" enable-background="new"/><path fill="#fff" d="M76.2 422.5v13c4.9-8.4 13.2-14.2 25.2-14.2 13.7 0 21 6.3 24.4 16.1 4.5-8.8 13.5-16.1 26.8-16.1 18.6 0 26.3 13 26.3 30.2v39.3h-8.9v-38.2c0-13.2-5.8-23-20-23-12.6 0-19.9 8.3-22.4 17.5v43.9h-8.9v-38.2c0-13.5-5.8-23-19.9-23-12.7 0-20.1 8.1-22.7 17.5v43.7h-8.9v-68.4h9v-.1zm128.4 3.6c6.3-2.8 15.6-4.7 23.8-4.7 17.8 0 26.2 10.1 26.2 25.1v44.4h-8.9v-8.3c-4.9 4.7-12.3 9.6-23.6 9.6-14.9 0-24.2-8.1-24.2-20.7 0-16.7 14.2-24.2 33.3-24.2 5.3 0 10.3.7 14.3 1.7v-2.1c0-11.7-6-17.7-17.9-17.7-7.7 0-15.3 1.7-21.4 4.7l-1.6-7.8zm19.8 58.9c10.2 0 16.9-4.9 21.2-8.8v-20.5c-3-.8-7.9-1.5-12.8-1.5-14.7 0-26.1 4.9-26.1 16.6.1 9.2 7 14.2 17.7 14.2zm84-63.7c10 0 18 4.5 23.2 9.7v-32.9h8.9v92.9h-8.9v-8.6c-5.1 5.3-13.2 10-23.2 10-20.1 0-33.5-14.9-33.5-35.5s13.4-35.6 33.5-35.6zm2 62.9c9.1 0 16.9-4.6 21.2-9.2v-36c-4.3-4.9-12.2-9.7-21.2-9.7-16 0-26.4 11.3-26.4 27.4.1 16.2 10.5 27.5 26.4 27.5zm115.9-.7c-7.1 5.6-16.5 9.2-28 9.2-25.7 0-36.7-16.2-36.7-35.8 0-19.9 13.7-36.3 35.7-36.3 20.7 0 30.1 12.9 30.1 28.6 0 3.8-.5 8.3-1.2 10.8h-55.6c.9 14.2 9.4 25.2 28 25.2 10.1 0 18.1-3.9 23.9-8.4l3.8 6.7zm-7.5-35.5c0-10.3-6.5-19.7-21.7-19.7-16.1 0-25.5 11.3-26.3 24.4h47.6c.2-1.3.4-2.9.4-4.7zm170.7-25.5l-26.9 68.4h-11l-22.6-59.7-22.7 59.7h-11l-26.4-68.4h9.6l22.6 60.2 22.9-60.2h10.5l22.3 60.2 23.1-60.2h9.6zm22.3-24.9c3.4 0 5.8 1.4 5.8 5.6 0 4-2.4 5.6-5.8 5.6-3.7 0-6-1.5-6-5.6 0-4.3 2.4-5.6 6-5.6zm-4.5 24.9h8.9v68.4h-8.9v-68.4zm49.6-17.2v17.4h28.4v7.3h-28.6v40c0 9.6 4.5 14.3 12.8 14.3 5.3 0 12.2-2.4 16.2-5.3l3.1 7.1c-5.6 3.7-13.2 6.3-21.8 6.3-12.1 0-19.2-7.3-19.2-20.7v-41.6h-13.6v-7.5h13.8l.9-17.4h8v.1zm57-7.1v37.1c5-8.6 14.1-13.9 26.1-13.9 18.6 0 27.4 13 27.4 30.2v39.4h-9v-38.2c0-13.2-6.5-23-21-23-12.6 0-21 7.8-23.6 17.3v44h-8.8v-92.9h8.9z" enable-background="new"/><path opacity=".26" enable-background="new" d="M932.8 441.9c0 9-3.8 16.9-10 22.5h.1l-33.2 33.2c-3.3 3.3-6.6 6.6-10 6.6-3.3 0-6.6-3.3-10-6.6l-33.2-33.2h.1c-6.2-5.6-10-13.6-10-22.5 0-16.8 13.6-30.5 30.5-30.5 9 0 16.9 3.8 22.5 10 5.6-6.2 13.6-10 22.5-10 17.1.1 30.7 13.7 30.7 30.5z"/><path fill="#FF2329" d="M930.1 438.7c0 9-3.8 16.9-10 22.5h.1l-33.2 33.2c-3.3 3.3-6.6 6.6-10 6.6s-6.6-3.3-10-6.6l-33-33.1h.1c-6.2-5.6-10-13.6-10-22.5 0-16.8 13.6-30.5 30.5-30.5 9 0 16.9 3.8 22.5 10 5.6-6.2 13.6-10 22.5-10 16.9 0 30.5 13.6 30.5 30.4z"/></svg>